<svg xmlns="http://www.w3.org/2000/svg" xmlns:xlink="http://www.w3.org/1999/xlink">
  <symbol>
    <!-- ícone do menu  -->

    <g id="hpa-menu">
      <path
        d="M8.5746 1.02251e-07L4.85774 3.70992L1.14504 1.36544e-08L5.79279e-08 1.14226L4.85774 6L9.71548 1.14226L8.5746 1.02251e-07Z"
        fill="#251203" />
    </g>
    <!-- ícone de carrinho -->
    <g id="hpa-cart">
      <path
        d="M3.375 1.58325L1 4.74992V15.8333C1 16.2532 1.16681 16.6559 1.46375 16.9528C1.76068 17.2498 2.16341 17.4166 2.58333 17.4166H13.6667C14.0866 17.4166 14.4893 17.2498 14.7863 16.9528C15.0832 16.6559 15.25 16.2532 15.25 15.8333V4.74992L12.875 1.58325H3.375Z"
        stroke="#43483B" stroke-width="1.5" stroke-linecap="round" stroke-linejoin="round" />
      <path d="M1 4.75H15.25" stroke="#43483B" stroke-width="1.5" stroke-linecap="round"
        stroke-linejoin="round" />
      <path
        d="M11.2917 7.9165C11.2917 8.75636 10.9581 9.56181 10.3642 10.1557C9.77035 10.7495 8.96489 11.0832 8.12504 11.0832C7.28519 11.0832 6.47973 10.7495 5.88587 10.1557C5.292 9.56181 4.95837 8.75636 4.95837 7.9165"
        stroke="#43483B" stroke-width="1.5" stroke-linecap="round" stroke-linejoin="round" />
    </g>

    <!-- ícone de usuário -->
    <g id="hpa-profile">
      <path
        d="M248 8C111 8 0 119 0 256s111 248 248 248 248-111 248-248S385 8 248 8zm0 96c48.6 0 88 39.4 88 88s-39.4 88-88 88-88-39.4-88-88 39.4-88 88-88zm0 344c-58.7 0-111.3-26.6-146.5-68.2 18.8-35.4 55.6-59.8 98.5-59.8 2.4 0 4.8.4 7.1 1.1 13 4.2 26.6 6.9 40.9 6.9 14.3 0 28-2.7 40.9-6.9 2.3-.7 4.7-1.1 7.1-1.1 42.9 0 79.7 24.4 98.5 59.8C359.3 421.4 306.7 448 248 448z" fill="#04264B" />
    </g>

    <!-- ícone de exclusão -->
    <g id="hpa-delete">
      <path fill-rule="evenodd" clip-rule="evenodd"
        d="M9.45455 2.36364H13V3.54545H11.8182V14.1818L10.6364 15.3636H2.36364L1.18182 14.1818V3.54545H0V2.36364H3.54545V1.18182C3.54545 0.868381 3.66997 0.56778 3.8916 0.346146C4.11323 0.124513 4.41384 0 4.72727 0H8.27273C8.58616 0 8.88676 0.124513 9.1084 0.346146C9.33003 0.56778 9.45455 0.868381 9.45455 1.18182V2.36364ZM8.27273 1.18182H4.72727V2.36364H8.27273V1.18182ZM2.36364 14.1818H10.6364V3.54545H2.36364V14.1818ZM4.72727 4.72727H3.54545V13H4.72727V4.72727ZM5.90909 4.72727H7.09091V13H5.90909V4.72727ZM8.27273 4.72727H9.45455V13H8.27273V4.72727Z"
        fill="#D9D8D7" />
    </g>

    <!-- ícone de busca -->
    <g id="hpa-search">
      <path
        d="M14 13.2678L10.0893 9.35711C11.0291 8.22892 11.4977 6.78185 11.3977 5.31693C11.2977 3.85202 10.6368 2.48205 9.55246 1.49202C8.46811 0.501988 7.04382 -0.0318806 5.57588 0.00147384C4.10793 0.0348283 2.70936 0.632837 1.6711 1.6711C0.632837 2.70936 0.0348283 4.10793 0.00147384 5.57588C-0.0318806 7.04382 0.501988 8.46811 1.49202 9.55246C2.48205 10.6368 3.85202 11.2977 5.31693 11.3977C6.78185 11.4977 8.22892 11.0291 9.35711 10.0893L13.2678 14L14 13.2678ZM1.05418 5.71468C1.05418 4.79292 1.32752 3.89186 1.83962 3.12545C2.35172 2.35903 3.07959 1.76168 3.93118 1.40894C4.78278 1.0562 5.71985 0.963907 6.62389 1.14373C7.52794 1.32356 8.35836 1.76743 9.01014 2.41921C9.66193 3.07099 10.1058 3.90141 10.2856 4.80546C10.4654 5.70951 10.3732 6.64658 10.0204 7.49817C9.66767 8.34976 9.07032 9.07764 8.30391 9.58974C7.5375 10.1018 6.63644 10.3752 5.71468 10.3752C4.47906 10.3738 3.29444 9.88235 2.42072 9.00863C1.54701 8.13492 1.05555 6.9503 1.05418 5.71468Z"
        fill="#4F4242" />
    </g>

    <!-- ícone de menu hamburguer -->
    <g id="hpa-hamburguer-menu">
      <path d="M1 10.6667H30" stroke="#43483B" stroke-width="2" stroke-linecap="round"
        stroke-linejoin="round" />
      <path d="M1 1H30" stroke="#43483B" stroke-width="2" stroke-linecap="round"
        stroke-linejoin="round" />
      <path d="M1 20.3333H30" stroke="#43483B" stroke-width="2" stroke-linecap="round"
        stroke-linejoin="round" />
    </g>

    <!-- arrow left -->
    <g id="nav-thin-caret--left">
      <path
        d="M9.50098 12.855L4.15498 7.49902L9.50098 2.14902L7.85498 0.499023L0.85498 7.49902L7.85498 14.499L9.50098 12.855Z"
        fill="#7C7C7C" />
    </g>

    <!-- arrow right -->
    <g id="nav-thin-caret--right">
      <path
        d="M0.499508 2.14498L5.84551 7.50098L0.499508 12.851L2.14551 14.501L9.14551 7.50098L2.14551 0.500977L0.499508 2.14498Z"
        fill="#7C7C7C" />
    </g>

    <!-- arrow down -->
    <g id="nav-caret--down">
      <path
        d="M8.5746 1.02251e-07L4.85774 3.70992L1.14504 1.36544e-08L5.79279e-08 1.14226L4.85774 6L9.71548 1.14226L8.5746 1.02251e-07Z"
        fill="#251203" />
    </g>


    <!-- arrow down -->
    <g id="nav-caret--up">
      <path
        d="M1.14024 6L4.85711 2.29008L8.56981 6L9.71484 4.85774L4.85711 -2.12338e-07L-0.000631545 4.85774L1.14024 6Z"
        fill="#251203" />
    </g>

    <!-- filter -->
    <g id="mpa-filter-settings">
      <path
        d="M10.447 17.905C10.6126 17.8238 10.7521 17.6979 10.8499 17.5415C10.9476 17.3851 10.9996 17.2044 11 17.02V11.7C11 11.438 11.105 11.186 11.293 11L17.414 4.94602C17.789 4.57502 18 4.07102 18 3.54602V0.990018C17.9995 0.859315 17.9732 0.729998 17.9226 0.60947C17.8721 0.488942 17.7982 0.379569 17.7053 0.287613C17.6124 0.195656 17.5023 0.122922 17.3813 0.0735724C17.2603 0.0242231 17.1307 -0.00077185 17 1.81586e-05H1C0.447 1.81586e-05 0 0.442018 0 0.990018V3.54602C0 4.07102 0.211 4.57502 0.586 4.94602L6.707 11C6.79974 11.0915 6.8734 11.2005 6.92369 11.3206C6.97399 11.4408 6.99993 11.5698 7 11.7V18.01C7 18.745 7.782 19.223 8.447 18.894L10.447 17.905V17.905Z"
        fill="#D9D8D7" />
    </g>

    <!-- close button -->
        <g id="sti-close--line">
  <path fill-rule="evenodd" clip-rule="evenodd"
    d="M2.29289 2.29289C2.68342 1.90237 3.31658 1.90237 3.70711 2.29289L8 6.58579L12.2929 2.29289C12.6834 1.90237 13.3166 1.90237 13.7071 2.29289C14.0976 2.68342 14.0976 3.31658 13.7071 3.70711L9.41421 8L13.7071 12.2929C14.0976 12.6834 14.0976 13.3166 13.7071 13.7071C13.3166 14.0976 12.6834 14.0976 12.2929 13.7071L8 9.41421L3.70711 13.7071C3.31658 14.0976 2.68342 14.0976 2.29289 13.7071C1.90237 13.3166 1.90237 12.6834 2.29289 12.2929L6.58579 8L2.29289 3.70711C1.90237 3.31658 1.90237 2.68342 2.29289 2.29289Z"
    fill="#000"/>
    </g>



  </symbol>
</svg>
