<?xml version="1.0" encoding="iso-8859-1"?>
<!-- Generator: Adobe Illustrator 19.0.0, SVG Export Plug-In . SVG Version: 6.00 Build 0)  -->
<svg version="1.1" id="Capa_1" xmlns="http://www.w3.org/2000/svg" xmlns:xlink="http://www.w3.org/1999/xlink" x="0px" y="0px"
	 viewBox="0 0 480 480" style="enable-background:new 0 0 480 480;" xml:space="preserve">
<g>
	<g>
		<path d="M472,40h-56V8c0-4.418-3.582-8-8-8H8C3.582,0,0,3.582,0,8v416c0.035,30.913,25.087,55.965,56,56h368
			c30.913-0.035,55.965-25.087,56-56V48C480,43.582,476.418,40,472,40z M464,424c-0.026,22.08-17.92,39.974-40,40H56
			c-22.08-0.026-39.974-17.92-40-40V16h384v392c0,4.418,3.582,8,8,8s8-3.582,8-8V56h16v352c0,4.418,3.582,8,8,8s8-3.582,8-8V56h16
			V424z"/>
	</g>
</g>
<g>
	<g>
		<path d="M152,48H56c-4.418,0-8,3.582-8,8v160c0,4.418,3.582,8,8,8h96c4.418,0,8-3.582,8-8V56C160,51.582,156.418,48,152,48z
			 M144,208H64V64h80V208z"/>
	</g>
</g>
<g>
	<g>
		<path d="M360,272H248c-4.418,0-8,3.582-8,8v128c0,4.418,3.582,8,8,8h112c4.418,0,8-3.582,8-8V280C368,275.582,364.418,272,360,272
			z M352,400h-96V288h96V400z"/>
	</g>
</g>
<g>
	<g>
		<path d="M360,48H200c-4.418,0-8,3.582-8,8s3.582,8,8,8h160c4.418,0,8-3.582,8-8S364.418,48,360,48z"/>
	</g>
</g>
<g>
	<g>
		<path d="M360,80H200c-4.418,0-8,3.582-8,8s3.582,8,8,8h160c4.418,0,8-3.582,8-8S364.418,80,360,80z"/>
	</g>
</g>
<g>
	<g>
		<path d="M360,112H200c-4.418,0-8,3.582-8,8s3.582,8,8,8h160c4.418,0,8-3.582,8-8S364.418,112,360,112z"/>
	</g>
</g>
<g>
	<g>
		<path d="M360,144H200c-4.418,0-8,3.582-8,8s3.582,8,8,8h160c4.418,0,8-3.582,8-8S364.418,144,360,144z"/>
	</g>
</g>
<g>
	<g>
		<path d="M360,176H200c-4.418,0-8,3.582-8,8s3.582,8,8,8h160c4.418,0,8-3.582,8-8S364.418,176,360,176z"/>
	</g>
</g>
<g>
	<g>
		<path d="M360,208H200c-4.418,0-8,3.582-8,8s3.582,8,8,8h160c4.418,0,8-3.582,8-8S364.418,208,360,208z"/>
	</g>
</g>
<g>
	<g>
		<path d="M120,272H56c-4.418,0-8,3.582-8,8s3.582,8,8,8h64c4.418,0,8-3.582,8-8S124.418,272,120,272z"/>
	</g>
</g>
<g>
	<g>
		<path d="M216,272h-64c-4.418,0-8,3.582-8,8s3.582,8,8,8h64c4.418,0,8-3.582,8-8S220.418,272,216,272z"/>
	</g>
</g>
<g>
	<g>
		<path d="M120,304H56c-4.418,0-8,3.582-8,8s3.582,8,8,8h64c4.418,0,8-3.582,8-8S124.418,304,120,304z"/>
	</g>
</g>
<g>
	<g>
		<path d="M216,304h-64c-4.418,0-8,3.582-8,8s3.582,8,8,8h64c4.418,0,8-3.582,8-8S220.418,304,216,304z"/>
	</g>
</g>
<g>
	<g>
		<path d="M120,336H56c-4.418,0-8,3.582-8,8s3.582,8,8,8h64c4.418,0,8-3.582,8-8S124.418,336,120,336z"/>
	</g>
</g>
<g>
	<g>
		<path d="M216,336h-64c-4.418,0-8,3.582-8,8s3.582,8,8,8h64c4.418,0,8-3.582,8-8S220.418,336,216,336z"/>
	</g>
</g>
<g>
	<g>
		<path d="M120,368H56c-4.418,0-8,3.582-8,8s3.582,8,8,8h64c4.418,0,8-3.582,8-8S124.418,368,120,368z"/>
	</g>
</g>
<g>
	<g>
		<path d="M216,368h-64c-4.418,0-8,3.582-8,8s3.582,8,8,8h64c4.418,0,8-3.582,8-8S220.418,368,216,368z"/>
	</g>
</g>
<g>
</g>
<g>
</g>
<g>
</g>
<g>
</g>
<g>
</g>
<g>
</g>
<g>
</g>
<g>
</g>
<g>
</g>
<g>
</g>
<g>
</g>
<g>
</g>
<g>
</g>
<g>
</g>
<g>
</g>
</svg>
