<?xml version="1.0" encoding="UTF-8"?>
<svg id="Camada_2" data-name="Camada 2" xmlns="http://www.w3.org/2000/svg" viewBox="0 0 64.87 64.87">
  <defs>
    <style>
      .cls-1 {
        fill: #226ab6;
      }

      .cls-2 {
        fill: #eeefef;
      }
    </style>
  </defs>
  <g id="Logos">
    <g>
      <circle class="cls-1" cx="32.44" cy="32.44" r="32.44"/>
      <path class="cls-2" d="M47.24,35.64v10.95h-6.35v-10.22c0-2.57-.92-4.32-3.22-4.32-1.75,0-2.8,1.18-3.26,2.32-.17.41-.21.97-.21,1.55v10.66h-6.35s.09-17.3,0-19.09h6.35v2.71s-.03.04-.04.06h.04v-.06c.84-1.3,2.35-3.15,5.72-3.15,4.18,0,7.31,2.73,7.31,8.59h0ZM21.22,18.29c-2.17,0-3.59,1.43-3.59,3.3s1.38,3.3,3.51,3.3h.04c2.21,0,3.59-1.47,3.59-3.3-.04-1.87-1.38-3.3-3.55-3.3h0ZM18.01,46.59h6.35v-19.1h-6.35v19.1Z"/>
    </g>
  </g>
</svg>