<?xml version="1.0" encoding="UTF-8"?>
<svg id="Camada_2" data-name="Camada 2" xmlns="http://www.w3.org/2000/svg" viewBox="0 0 64.87 64.87">
  <defs>
    <style>
      .cls-1 {
        fill: #226ab6;
      }

      .cls-2 {
        fill: #fff;
      }
    </style>
  </defs>
  <g id="Logos">
    <g>
      <circle class="cls-1" cx="32.44" cy="32.44" r="32.44"/>
      <path class="cls-2" d="M42.54,20.1c-3.95-.13-6.63,2.1-8.03,6.7.72-.31,1.43-.47,2.11-.47,1.45,0,2.09.82,1.92,2.45-.08.98-.73,2.42-1.92,4.31-1.2,1.89-2.09,2.83-2.69,2.83-.77,0-1.47-1.45-2.11-4.36-.22-.85-.6-3.03-1.15-6.54-.51-3.25-1.88-4.77-4.1-4.55-.94.09-2.35.94-4.23,2.56-1.37,1.24-2.75,2.48-4.16,3.71l1.34,1.73c1.28-.89,2.02-1.34,2.24-1.34.98,0,1.89,1.54,2.75,4.61.77,2.81,1.54,5.63,2.3,8.44,1.15,3.07,2.55,4.6,4.22,4.6,2.68,0,5.96-2.52,9.84-7.56,3.75-4.83,5.69-8.63,5.81-11.4.17-3.72-1.21-5.62-4.14-5.7Z"/>
    </g>
  </g>
</svg>